<?xml version="1.0" encoding="UTF-8"?>
<svg version="1.1" xmlns="http://www.w3.org/2000/svg" width="117" height="85">
<path d="M0 0 C2.31 0 4.62 0 7 0 C10.82738508 8.11898271 13.82530474 16.5105311 16.85595703 24.94995117 C17.7571399 27.45736578 18.6653505 29.96215914 19.57421875 32.46679688 C20.14885547 34.05974512 20.72308912 35.65283883 21.296875 37.24609375 C21.56868591 37.99499374 21.84049683 38.74389374 22.12054443 39.51548767 C24 44.76992113 24 44.76992113 24 47 C21.69 47 19.38 47 17 47 C16.32942113 45.2097939 15.6636531 43.41778511 15 41.625 C14.62875 40.62726562 14.2575 39.62953125 13.875 38.6015625 C13 36 13 36 13 34 C7.06 34 1.12 34 -5 34 C-5.45375 35.4025 -5.9075 36.805 -6.375 38.25 C-7.36783204 41.31875358 -8.49439503 44.14589666 -10 47 C-11.98 47 -13.96 47 -16 47 C-14.7638964 40.70168833 -13.00492416 34.80935473 -10.7421875 28.80859375 C-10.2803154 27.56252098 -10.2803154 27.56252098 -9.80911255 26.29127502 C-8.83655711 23.67127148 -7.85593634 21.05437566 -6.875 18.4375 C-6.20909692 16.64798675 -5.54372734 14.85827488 -4.87890625 13.06835938 C-3.25875697 8.70992126 -1.63137359 4.3542486 0 0 Z M3 10 C2.15875684 12.24732102 1.32685168 14.49738785 0.5 16.75 C0.26152344 17.38421875 0.02304687 18.0184375 -0.22265625 18.671875 C-1.44801758 22.03286607 -2 24.36871587 -2 28 C1.96 28 5.92 28 10 28 C8.76281145 21.50476013 6.89324549 15.94098468 4 10 C3.67 10 3.34 10 3 10 Z " fill="#F8F8F8" transform="translate(35,14)"/>
<path d="M0 0 C2.70564044 1.72177119 4.24965706 2.92582505 5.75 5.75 C4.75 8.75 4.75 8.75 2.9375 9.6875 C1.8546875 9.7184375 1.8546875 9.7184375 0.75 9.75 C0.151875 9.110625 -0.44625 8.47125 -1.0625 7.8125 C-3.19198339 5.37703393 -3.19198339 5.37703393 -6.875 5.4375 C-10.11582325 5.53172655 -10.11582325 5.53172655 -12.25 6.75 C-12.25 8.4 -12.25 10.05 -12.25 11.75 C-11.21359375 12.05292969 -10.1771875 12.35585938 -9.109375 12.66796875 C-7.7393069 13.09025001 -6.36953013 13.51347727 -5 13.9375 C-4.31808594 14.13408203 -3.63617188 14.33066406 -2.93359375 14.53320312 C1.72054603 16.00174238 4.20587026 17.56760489 6.75 21.75 C7.34337198 25.90360383 7.23074603 27.94875662 5.0625 31.5625 C0.49988571 35.87848649 -3.80050249 36.13425775 -9.87890625 36.0078125 C-12.98548779 35.67002933 -14.84149466 34.72059528 -17.25 32.75 C-17.848125 32.275625 -18.44625 31.80125 -19.0625 31.3125 C-20.25 29.75 -20.25 29.75 -20.25 25.75 C-18.6 25.42 -16.95 25.09 -15.25 24.75 C-14.899375 25.389375 -14.54875 26.02875 -14.1875 26.6875 C-12.30471614 29.04927006 -12.30471614 29.04927006 -8.875 29.6875 C-4.90555668 29.75593868 -3.36436632 29.10936842 -0.25 26.75 C-0.17228232 24.79363514 -0.17228232 24.79363514 -1.25 22.75 C-3.7467042 21.72509995 -6.03816611 20.94719501 -8.625 20.25 C-15.69054075 18.32424171 -15.69054075 18.32424171 -18.171875 15.77734375 C-19.64078485 13.01515457 -20.12221537 10.88072344 -20.25 7.75 C-18.6178072 4.05608997 -16.66112683 1.88195427 -13.25 -0.25 C-8.50101245 -1.83299585 -4.68540528 -1.80207896 0 0 Z " fill="#FAFAFA" transform="translate(84.25,26.25)"/>
</svg>
